# xmcd
#
# Track frame offsets:
#	150
#	18678
#	36647
#	52730
#	65825
#	83316
#	98445
#	116971
#	134940
#	151023
#	164118
#	181611
#
# Disc length: 2623 seconds
#
# Revision: 1
# Processed by: cddbd v1.5.2PL0 Copyright (c) Steve Scherf et al.
# Submitted via: audiograbber 1.83.01
#
DISCID=9f0a3d0c
DTITLE=Various Artist - CB20052 Hot Hits Vol. 52
DYEAR=1900
DGENRE=Country
TTITLE0=Garth Brooks - You Move Me (Vocals)
TTITLE1=Travis Tritt - If I Lost You (Vocals)
TTITLE2=Hal Ketchum - A Girl Like You (Vocals)
TTITLE3=Trini Triggs - Straight Tequila (Vocals)
TTITLE4=Deryl Dodd - A Bitter End (Vocals)
TTITLE5=Blackhawk - There You Have It (Vocals)
TTITLE6=Garth Brooks - You Move Me
TTITLE7=Travis Tritt - If I Lost You
TTITLE8=Hal Ketchum - A Girl Like You
TTITLE9=Trini Triggs - Straight Tequila
TTITLE10=Deryl Dodd - A Bitter End
TTITLE11=Blackhawk - There You Have It
EXTD=
EXTT0=
EXTT1=
EXTT2=
EXTT3=
EXTT4=
EXTT5=
EXTT6=
EXTT7=
EXTT8=
EXTT9=
EXTT10=
EXTT11=
PLAYORDER=
